<mxfile host="app.diagrams.net" modified="2021-09-26T08:03:42.150Z" agent="5.0 (Windows NT 10.0; Win64; x64) AppleWebKit/537.36 (KHTML, like Gecko) Chrome/94.0.4606.61 Safari/537.36" etag="dt9Ga2-W8sMSs8pBOE0s" version="15.3.2" type="github">
  <diagram id="IKTnQqFtLfWjOVM5KkCs" name="Page-1">
    <mxGraphModel dx="1550" dy="779" grid="1" gridSize="10" guides="1" tooltips="1" connect="1" arrows="1" fold="1" page="1" pageScale="1" pageWidth="827" pageHeight="1169" background="#FFFFFF" math="0" shadow="0">
      <root>
        <mxCell id="0" />
        <mxCell id="1" parent="0" />
        <mxCell id="9_Y-WmDy1sxenkCwUgge-126" value="touch" style="image;html=1;image=img/lib/clip_art/computers/Touch_128x128.png" parent="1" vertex="1">
          <mxGeometry x="50" y="380" width="80" height="80" as="geometry" />
        </mxCell>
        <mxCell id="9_Y-WmDy1sxenkCwUgge-129" value="firewall&lt;br&gt;" style="image;html=1;image=img/lib/clip_art/networking/Firewall_02_128x128.png" parent="1" vertex="1">
          <mxGeometry x="200" y="220" width="80" height="80" as="geometry" />
        </mxCell>
        <mxCell id="9_Y-WmDy1sxenkCwUgge-131" value="" style="image;html=1;image=img/lib/clip_art/computers/iPad_128x128.png" parent="1" vertex="1">
          <mxGeometry x="50" y="240" width="80" height="80" as="geometry" />
        </mxCell>
        <mxCell id="9_Y-WmDy1sxenkCwUgge-132" value="" style="image;html=1;image=img/lib/clip_art/computers/Laptop_128x128.png" parent="1" vertex="1">
          <mxGeometry x="50" y="130" width="80" height="80" as="geometry" />
        </mxCell>
        <mxCell id="9_Y-WmDy1sxenkCwUgge-133" value="" style="image;html=1;image=img/lib/clip_art/general/Bluetooth_128x128.png" parent="1" vertex="1">
          <mxGeometry x="50" y="520" width="80" height="80" as="geometry" />
        </mxCell>
        <mxCell id="9_Y-WmDy1sxenkCwUgge-134" value="" style="image;html=1;image=img/lib/clip_art/general/Earth_globe_128x128.png" parent="1" vertex="1">
          <mxGeometry x="190" y="77" width="80" height="80" as="geometry" />
        </mxCell>
        <mxCell id="9_Y-WmDy1sxenkCwUgge-135" value="" style="image;html=1;image=img/lib/clip_art/people/Suit_Man_128x128.png" parent="1" vertex="1">
          <mxGeometry x="280" y="505" width="80" height="80" as="geometry" />
        </mxCell>
        <mxCell id="9_Y-WmDy1sxenkCwUgge-136" value="" style="image;html=1;image=img/lib/clip_art/people/Suit_Woman_128x128.png" parent="1" vertex="1">
          <mxGeometry x="470" y="500" width="80" height="80" as="geometry" />
        </mxCell>
        <mxCell id="9_Y-WmDy1sxenkCwUgge-137" value="" style="image;html=1;image=img/lib/clip_art/telecommunication/iPhone_128x128.png" parent="1" vertex="1">
          <mxGeometry x="30" y="30" width="80" height="80" as="geometry" />
        </mxCell>
      </root>
    </mxGraphModel>
  </diagram>
</mxfile>
